<svg width="720" height="164" viewBox="0 0 720 164" fill="none" xmlns="http://www.w3.org/2000/svg">
  <rect x="8" y="10" width="144" height="144" rx="40" fill="url(#bg)"/>
  <rect x="36" y="46" width="70" height="82" rx="18" fill="url(#sheetBack)" fill-opacity="0.5"/>
  <path d="M54 30H108C124.569 30 138 43.4315 138 60V114C138 130.569 124.569 144 108 144H54C37.4315 144 24 130.569 24 114V60C24 43.4315 37.4315 30 54 30Z" fill="url(#sheetFront)"/>
  <path d="M108 30L138 60H117C112.029 60 108 55.9706 108 51V30Z" fill="#D8E8FF"/>
  <path d="M52 53C52 50.7909 53.7909 49 56 49H81C83.2091 49 85 50.7909 85 53V97.8L68.5 111L52 97.8V53Z" fill="url(#bookmark)"/>
  <rect x="94" y="74" width="22" height="7" rx="3.5" fill="#2F69FF"/>
  <rect x="94" y="89" width="28" height="7" rx="3.5" fill="#8CB5FF"/>
  <rect x="52" y="118" width="60" height="7" rx="3.5" fill="#CFE0FF"/>

  <text x="186" y="86" fill="#1F2937" font-family="'IBM Plex Sans', 'Segoe UI', Arial, sans-serif" font-size="56" font-weight="700" letter-spacing="-1.4">
    JekyllNet
  </text>
  <text x="190" y="120" fill="#617184" font-family="'IBM Plex Sans', 'Segoe UI', Arial, sans-serif" font-size="18" font-weight="600" letter-spacing="1.4">
    STATIC SITE GENERATOR FOR .NET
  </text>

  <defs>
    <linearGradient id="bg" x1="20" y1="18" x2="142" y2="146" gradientUnits="userSpaceOnUse">
      <stop stop-color="#2D5BFF"/>
      <stop offset="0.58" stop-color="#377DFF"/>
      <stop offset="1" stop-color="#18B4A9"/>
    </linearGradient>
    <linearGradient id="sheetFront" x1="36" y1="38" x2="124" y2="136" gradientUnits="userSpaceOnUse">
      <stop stop-color="#FFFFFF"/>
      <stop offset="1" stop-color="#F4F9FF"/>
    </linearGradient>
    <linearGradient id="sheetBack" x1="36" y1="46" x2="106" y2="128" gradientUnits="userSpaceOnUse">
      <stop stop-color="#9FC5FF"/>
      <stop offset="1" stop-color="#B9FFF3"/>
    </linearGradient>
    <linearGradient id="bookmark" x1="52" y1="49" x2="85" y2="111" gradientUnits="userSpaceOnUse">
      <stop stop-color="#FF8A49"/>
      <stop offset="1" stop-color="#F35F20"/>
    </linearGradient>
  </defs>
</svg>
